<svg width="531" height="124" viewBox="0 0 531 124" fill="none" xmlns="http://www.w3.org/2000/svg">
<path d="M35.7197 94.5645L14.7295 98.0381L0 123.403V114.296L8.62207 96.082L16.1562 86.7969L38.248 79.8936L35.7197 94.5645ZM101 62.6895L91.1465 83.9395H80.0615L83.7559 77.8682H87.4512L98.5361 68.002L54.1953 80.9033L39.5127 79.498L99.8867 60.6318L101 62.6895ZM51.9092 67.2471L21.873 76.6328L19.708 56.6182L51.9092 67.2471ZM81.293 3.49414L101 12.6006V17.1543L88.6826 18.6719L82.835 57.583L56.9326 65.6777L81.293 45.001L77.5977 11.083L56.2021 0L81.293 3.49414Z" fill="black"/>
<path d="M294.661 80C294.841 81.4585 294.931 83.0103 294.931 84.6553C294.931 89.5191 293.693 93.9563 291.219 97.9668C288.744 101.977 285.203 105.178 280.595 107.567C276.072 109.871 270.611 111.023 264.211 111.023C258.238 111.023 252.563 110.084 247.187 108.207C241.896 106.244 237.33 103.94 233.49 101.295L239.507 90.6709C242.493 92.9749 246.163 94.9808 250.515 96.6875C254.867 98.3941 259.005 99.2471 262.931 99.2471C265.832 99.2471 268.648 98.7775 271.379 97.8389C274.109 96.8149 276.371 95.2358 278.163 93.1025C280.04 90.9693 280.978 88.1536 280.979 84.6553C280.979 82.957 280.698 81.4059 280.143 80H294.661ZM218.874 109.999H203.386L194.241 86.7031H159.291L149.754 109.999H136.441L149.116 80H206.199L218.874 109.999ZM333.719 109.999H320.406V80H333.719V109.999ZM378.72 109.999H365.151V80H378.616L378.72 109.999ZM435.936 109.999H418.912L396.478 80H413.018L435.936 109.999ZM530.479 109.999H514.99L505.846 86.7031H470.896L461.358 109.999H448.047L460.722 80H517.804L530.479 109.999ZM198.594 62H184.544L177.132 43.1201L169.403 62H156.722L177.273 13.3594H178.042L198.594 62ZM265.747 16.6875C271.891 16.6875 277.267 17.4552 281.875 18.9912C286.483 20.4418 290.536 22.234 294.034 24.3672L289.043 34.7354C285.8 33.0287 282.301 31.5775 278.547 30.3828C274.792 29.1882 271.166 28.5909 267.667 28.5908C262.803 28.5908 258.962 29.7003 256.146 31.9189C253.331 34.0523 251.923 37.039 251.923 40.8789C251.923 43.5242 252.861 45.8284 254.738 47.791C256.616 49.7536 259.048 51.4605 262.034 52.9111C265.021 54.3618 268.179 55.7268 271.507 57.0068C275.192 58.3171 278.759 59.9824 282.208 62H250.076C248.858 61.2477 247.681 60.4371 246.547 59.5674C244.072 57.6048 242.024 55.2153 240.402 52.3994C238.866 49.4981 238.099 45.9992 238.099 41.9033C238.099 36.8687 239.251 32.516 241.555 28.8467C243.944 25.1775 247.23 22.2759 251.411 20.1426C255.592 18.0094 260.371 16.8582 265.747 16.6875ZM333.719 62H320.406V17.1992H333.719V62ZM378.72 53.8066L378.336 58.415L380.128 55.8555L416.735 17.1992H434.144L395.744 57.3906L399.266 62H365.151V17.1992H378.72V53.8066ZM510.198 62H496.148L488.736 43.1191L481.008 62H468.327L488.879 13.3594H489.646L510.198 62Z" fill="black"/>
</svg>
