<svg width="359" height="81" viewBox="0 0 359 81" fill="none" xmlns="http://www.w3.org/2000/svg">
<path d="M45.2354 63.9897C37.1457 63.9897 29.0584 63.9981 20.9687 63.9813C19.4995 63.9771 18.0214 63.9331 16.5611 63.789C14.2038 63.5565 12.0635 62.701 10.1382 61.3935C7.04154 59.291 4.78742 56.5714 3.6843 53.0633C3.09891 51.2014 2.88391 49.2955 3.05936 47.352C3.54613 41.9694 6.16461 37.7729 10.8377 34.7645C13.4097 33.1076 16.2805 32.2122 19.3966 32.0824C19.8547 32.0636 19.8415 32.0636 19.8349 31.5973C19.7934 28.7938 20.5038 26.1788 22.0016 23.7564C23.8151 20.8253 26.2822 18.6037 29.6022 17.2858C31.6373 16.4783 33.7621 16.0495 35.9552 16.0035C38.7861 15.9449 41.4504 16.6165 43.9459 17.8778C44.3911 18.1038 44.7223 18.1164 45.1784 17.8778C46.7026 17.0851 48.3295 16.5369 50.0444 16.2483C51.7352 15.9657 53.426 15.9721 55.1277 16.1749C57.4959 16.4575 59.7216 17.1268 61.7128 18.3842C65.6667 20.884 68.173 24.3422 69.0219 28.8233C69.2016 29.7772 69.2039 30.7603 69.2673 31.7333C69.2828 31.9674 69.3177 32.0785 69.605 32.095C75.2232 32.4152 79.6704 34.7667 82.9379 39.1387C84.5433 41.2852 85.6395 43.6532 85.8961 46.2809C86.4531 52.0171 84.815 56.9794 79.9052 60.651C77.8196 62.2095 75.4844 63.3224 72.8441 63.7427C71.8769 63.8978 70.8858 63.9855 69.9054 63.9875C61.6836 64.0066 53.4638 63.9981 45.242 63.9981C45.2394 63.9981 45.2377 63.9962 45.2377 63.9939V63.9917C45.2377 63.9906 45.2365 63.9897 45.2354 63.9897ZM44.1609 62.8328C44.1609 62.8376 44.1647 62.8412 44.1695 62.8412C52.7913 62.8412 61.4153 62.8432 70.037 62.839C71.2826 62.839 72.5239 62.722 73.7167 62.3746C80.2145 60.4813 84.3458 55.8749 84.7867 49.2035C84.9994 45.9943 84.1812 43.0279 82.3173 40.3439C79.2189 35.8796 74.8769 33.4841 69.2498 33.2478C68.4408 33.2144 68.0438 32.8378 68.0526 32.0659C68.0658 30.8775 67.9758 29.6998 67.7258 28.5345C67.217 26.16 66.0878 24.0805 64.4563 22.2355C61.1011 18.4386 56.7262 16.9782 51.6497 17.2356C49.4874 17.3444 47.4502 18.0034 45.5579 19.0139C44.8693 19.3821 44.2507 19.3737 43.5644 19.0139C41.6786 18.0202 39.6544 17.3988 37.5075 17.2295C35.1109 17.041 32.7731 17.3924 30.5233 18.2041C27.0497 19.4573 24.5433 21.7459 22.7888 24.8295C21.903 26.388 21.313 28.0365 21.1663 29.8106C21.1026 30.5741 21.1178 31.3419 21.098 32.1076C21.0805 32.777 20.8108 33.0907 20.1288 33.2037C19.949 33.2332 19.765 33.2267 19.585 33.25C18.6817 33.3566 17.7606 33.3983 16.8768 33.5887C12.763 34.4841 9.44731 36.5616 7.06792 39.8984C4.3686 43.6827 3.56591 47.831 4.73267 52.2829C5.56804 55.4731 7.5286 57.9709 10.195 59.9898C11.991 61.3495 14.0238 62.2156 16.2891 62.5984C17.8615 62.8642 19.4468 62.8202 21.0258 62.8266C28.7362 62.8516 36.4443 62.839 44.1544 62.839C44.1581 62.839 44.1609 62.8362 44.1609 62.8328Z" fill="#3167C4" stroke="#3167C4" stroke-width="5" stroke-linejoin="round"/>
<path d="M47.087 55.8188L47.0867 55.8176C47.6431 55.4615 47.6163 54.9349 47.6139 54.4082C47.6072 53.1745 47.6052 51.943 47.6072 50.7095C47.6072 50.0971 47.7012 50.0076 48.335 50.0076C49.8237 50.0076 51.3104 50.0158 52.7991 50.0096C53.6809 50.0053 53.9196 49.7684 53.924 48.9254C53.9286 48.4048 53.9263 47.8819 53.924 47.361C53.9196 46.5265 53.6161 46.2236 52.7343 46.2236C51.2835 46.2236 49.8351 46.2491 48.384 46.2642C47.7079 46.2705 47.6119 46.1787 47.6139 45.5299C47.6139 44.1194 47.6186 42.7085 47.6186 41.298C47.6186 40.2713 47.4088 40.0642 46.3216 40.0044C46.1701 39.9956 45.0016 39.8717 45.0038 39.7658C45.0038 39.7114 45.0038 39.3734 45.0038 39.3193C44.9991 36.1907 45.0103 33.1533 45.0036 30.0247C44.9517 29.171 45.4656 28.4495 46.0584 27.6192C48.7884 23.5558 55.1025 22.8885 58.9775 25.7462C61.1983 27.3831 62.2785 29.6026 62.2987 32.2789C62.3165 34.6263 62.2987 36.974 62.2943 39.3193C62.2943 39.9212 62.3635 39.9896 63.0019 39.9876C65.5799 39.9833 68.1602 39.9961 70.7382 39.9684C75.0258 39.9192 78.6574 43.0798 78.9767 47.169C79.3046 51.3712 76.1396 55.2212 71.814 55.8637C71.2783 55.9426 70.7291 55.9873 70.1867 55.9896C63.4416 55.9981 56.6986 55.9959 49.9532 55.9981C49.1966 55.9981 48.44 56.0044 47.6854 55.9939C47.5147 55.9919 47.3458 55.9444 47.1751 55.912C47.148 55.9069 47.1246 55.89 47.1118 55.866L47.087 55.8188Z" fill="#3167C4"/>
<path d="M47.087 55.8188L47.0867 55.8176C47.6431 55.4615 47.6163 54.9349 47.6139 54.4082C47.6072 53.1745 47.6052 51.943 47.6072 50.7095C47.6072 50.0971 47.7012 50.0076 48.335 50.0076C49.8237 50.0076 51.3104 50.0158 52.7991 50.0096C53.6809 50.0053 53.9196 49.7684 53.924 48.9254C53.9286 48.4048 53.9263 47.8819 53.924 47.361C53.9196 46.5265 53.6161 46.2236 52.7343 46.2236C51.2835 46.2236 49.8351 46.2491 48.384 46.2642C47.7079 46.2705 47.6119 46.1787 47.6139 45.5299C47.6139 44.1194 47.6186 42.7085 47.6186 41.298C47.6186 40.2713 47.4088 40.0642 46.3216 40.0044C46.1701 39.9956 45.0016 39.8717 45.0038 39.7658C45.0038 39.7114 45.0038 39.3734 45.0038 39.3193C44.9991 36.1907 45.0103 33.1533 45.0036 30.0247C44.9517 29.171 45.4656 28.4495 46.0584 27.6192C48.7884 23.5558 55.1025 22.8885 58.9775 25.7462C61.1983 27.3831 62.2785 29.6026 62.2987 32.2789C62.3165 34.6263 62.2987 36.974 62.2943 39.3193C62.2943 39.9212 62.3635 39.9896 63.0019 39.9876C65.5799 39.9833 68.1602 39.9961 70.7382 39.9684C75.0258 39.9192 78.6574 43.0798 78.9767 47.169C79.3046 51.3712 76.1396 55.2212 71.814 55.8637C71.2783 55.9426 70.7291 55.9873 70.1867 55.9896C63.4416 55.9981 56.6986 55.9959 49.9532 55.9981C49.1966 55.9981 48.44 56.0044 47.6854 55.9939C47.5147 55.9919 47.3458 55.9444 47.1751 55.912C47.148 55.9069 47.1246 55.89 47.1118 55.866L47.087 55.8188Z" stroke="white" stroke-linejoin="round"/>
<path d="M47.087 55.8188L47.0867 55.8176C47.6431 55.4615 47.6163 54.9349 47.6139 54.4082C47.6072 53.1745 47.6052 51.943 47.6072 50.7095C47.6072 50.0971 47.7012 50.0076 48.335 50.0076C49.8237 50.0076 51.3104 50.0158 52.7991 50.0096C53.6809 50.0053 53.9196 49.7684 53.924 48.9254C53.9286 48.4048 53.9263 47.8819 53.924 47.361C53.9196 46.5265 53.6161 46.2236 52.7343 46.2236C51.2835 46.2236 49.8351 46.2491 48.384 46.2642C47.7079 46.2705 47.6119 46.1787 47.6139 45.5299C47.6139 44.1194 47.6186 42.7085 47.6186 41.298C47.6186 40.2713 47.4088 40.0642 46.3216 40.0044C46.1701 39.9956 45.0016 39.8717 45.0038 39.7658C45.0038 39.7114 45.0038 39.3734 45.0038 39.3193C44.9991 36.1907 45.0103 33.1533 45.0036 30.0247C44.9517 29.171 45.4656 28.4495 46.0584 27.6192C48.7884 23.5558 55.1025 22.8885 58.9775 25.7462C61.1983 27.3831 62.2785 29.6026 62.2987 32.2789C62.3165 34.6263 62.2987 36.974 62.2943 39.3193C62.2943 39.9212 62.3635 39.9896 63.0019 39.9876C65.5799 39.9833 68.1602 39.9961 70.7382 39.9684C75.0258 39.9192 78.6574 43.0798 78.9767 47.169C79.3046 51.3712 76.1396 55.2212 71.814 55.8637C71.2783 55.9426 70.7291 55.9873 70.1867 55.9896C63.4416 55.9981 56.6986 55.9959 49.9532 55.9981C49.1966 55.9981 48.44 56.0044 47.6854 55.9939C47.5147 55.9919 47.3458 55.9444 47.1751 55.912C47.148 55.9069 47.1246 55.89 47.1118 55.866L47.087 55.8188Z" stroke="white" stroke-linejoin="round"/>
<path d="M43.2549 55.8188L43.2552 55.8176C42.7451 55.4615 42.7697 54.9349 42.7719 54.4082C42.778 53.1745 42.7799 51.943 42.778 50.7095C42.778 50.0971 42.6919 50.0076 42.1109 50.0076C40.7463 50.0076 39.3835 50.0158 38.0188 50.0096C37.2105 50.0053 36.9917 49.7684 36.9877 48.9254C36.9834 48.4048 36.9855 47.8819 36.9877 47.361C36.9917 46.5265 37.2699 46.2236 38.0782 46.2236C39.4081 46.2236 40.7358 46.2491 42.066 46.2642C42.6857 46.2705 42.7737 46.1787 42.7719 45.5299C42.7719 44.1194 42.7676 42.7085 42.7676 41.298C42.7676 40.2713 42.9599 40.0642 43.9565 40.0044C44.0953 39.9956 45.1653 40.0743 45.1633 39.9684C45.1633 39.9141 45.1645 39.3734 45.1645 39.3193C45.1688 36.1907 45.1585 33.1533 45.1646 30.0247C45.2122 29.171 44.7412 28.4495 44.1978 27.6192C41.6953 23.5558 35.9073 22.8885 32.3553 25.7462C30.3195 27.3831 29.3293 29.6026 29.3108 32.2789C29.2945 34.6263 29.3108 36.974 29.3149 39.3193C29.3149 39.9212 29.2515 39.9896 28.6662 39.9876C26.3031 39.9833 23.9378 39.9961 21.5746 39.9684C17.6443 39.9192 14.3153 43.0798 14.0227 47.169C13.7221 51.3712 16.6234 55.2212 20.5884 55.8637C21.0795 55.9426 21.5829 55.9873 22.0802 55.9896C28.2631 55.9981 34.4443 55.9959 40.6275 55.9981C41.3211 55.9981 42.0146 56.0044 42.7063 55.9939C42.8628 55.9919 43.0177 55.9444 43.1741 55.912C43.199 55.9069 43.2204 55.89 43.2322 55.866L43.2549 55.8188Z" fill="#3167C4"/>
<path d="M43.2549 55.8188L43.2552 55.8176C42.7451 55.4615 42.7697 54.9349 42.7719 54.4082C42.778 53.1745 42.7799 51.943 42.778 50.7095C42.778 50.0971 42.6919 50.0076 42.1109 50.0076C40.7463 50.0076 39.3835 50.0158 38.0188 50.0096C37.2105 50.0053 36.9917 49.7684 36.9877 48.9254C36.9834 48.4048 36.9855 47.8819 36.9877 47.361C36.9917 46.5265 37.2699 46.2236 38.0782 46.2236C39.4081 46.2236 40.7358 46.2491 42.066 46.2642C42.6857 46.2705 42.7737 46.1787 42.7719 45.5299C42.7719 44.1194 42.7676 42.7085 42.7676 41.298C42.7676 40.2713 42.9599 40.0642 43.9565 40.0044C44.0953 39.9956 45.1653 40.0743 45.1633 39.9684C45.1633 39.9141 45.1645 39.3734 45.1645 39.3193C45.1688 36.1907 45.1585 33.1533 45.1646 30.0247C45.2122 29.171 44.7412 28.4495 44.1978 27.6192C41.6953 23.5558 35.9073 22.8885 32.3553 25.7462C30.3195 27.3831 29.3293 29.6026 29.3108 32.2789C29.2945 34.6263 29.3108 36.974 29.3149 39.3193C29.3149 39.9212 29.2515 39.9896 28.6662 39.9876C26.3031 39.9833 23.9378 39.9961 21.5746 39.9684C17.6443 39.9192 14.3153 43.0798 14.0227 47.169C13.7221 51.3712 16.6234 55.2212 20.5884 55.8637C21.0795 55.9426 21.5829 55.9873 22.0802 55.9896C28.2631 55.9981 34.4443 55.9959 40.6275 55.9981C41.3211 55.9981 42.0146 56.0044 42.7063 55.9939C42.8628 55.9919 43.0177 55.9444 43.1741 55.912C43.199 55.9069 43.2204 55.89 43.2322 55.866L43.2549 55.8188Z" stroke="white" stroke-linejoin="round"/>
<path d="M43.2549 55.8188L43.2552 55.8176C42.7451 55.4615 42.7697 54.9349 42.7719 54.4082C42.778 53.1745 42.7799 51.943 42.778 50.7095C42.778 50.0971 42.6919 50.0076 42.1109 50.0076C40.7463 50.0076 39.3835 50.0158 38.0188 50.0096C37.2105 50.0053 36.9917 49.7684 36.9877 48.9254C36.9834 48.4048 36.9855 47.8819 36.9877 47.361C36.9917 46.5265 37.2699 46.2236 38.0782 46.2236C39.4081 46.2236 40.7358 46.2491 42.066 46.2642C42.6857 46.2705 42.7737 46.1787 42.7719 45.5299C42.7719 44.1194 42.7676 42.7085 42.7676 41.298C42.7676 40.2713 42.9599 40.0642 43.9565 40.0044C44.0953 39.9956 45.1653 40.0743 45.1633 39.9684C45.1633 39.9141 45.1645 39.3734 45.1645 39.3193C45.1688 36.1907 45.1585 33.1533 45.1646 30.0247C45.2122 29.171 44.7412 28.4495 44.1978 27.6192C41.6953 23.5558 35.9073 22.8885 32.3553 25.7462C30.3195 27.3831 29.3293 29.6026 29.3108 32.2789C29.2945 34.6263 29.3108 36.974 29.3149 39.3193C29.3149 39.9212 29.2515 39.9896 28.6662 39.9876C26.3031 39.9833 23.9378 39.9961 21.5746 39.9684C17.6443 39.9192 14.3153 43.0798 14.0227 47.169C13.7221 51.3712 16.6234 55.2212 20.5884 55.8637C21.0795 55.9426 21.5829 55.9873 22.0802 55.9896C28.2631 55.9981 34.4443 55.9959 40.6275 55.9981C41.3211 55.9981 42.0146 56.0044 42.7063 55.9939C42.8628 55.9919 43.0177 55.9444 43.1741 55.912C43.199 55.9069 43.2204 55.89 43.2322 55.866L43.2549 55.8188Z" stroke="white" stroke-linejoin="round"/>
<mask id="path-4-outside-1_13222_15059" maskUnits="userSpaceOnUse" x="114" y="24" width="232" height="33" fill="black">
<rect fill="white" x="114" y="24" width="232" height="33"/>
<path d="M115.812 55V26.2109H117.804L131.417 45.7617L134.445 50.293H134.601L134.542 42.8516V26.2109H137.101V55H135.128L121.534 35.4102L118.468 30.957H118.312L118.351 38.1445V55H115.812ZM157.51 55.3125C155.531 55.3125 153.689 54.9479 151.983 54.2188C150.29 53.4766 148.812 52.4414 147.549 51.1133C146.286 49.7852 145.303 48.2292 144.6 46.4453C143.91 44.6484 143.565 42.6953 143.565 40.5859C143.565 38.4896 143.91 36.5495 144.6 34.7656C145.303 32.9818 146.28 31.4258 147.53 30.0977C148.793 28.7695 150.264 27.7409 151.944 27.0117C153.636 26.2695 155.472 25.8984 157.452 25.8984C159.457 25.8984 161.312 26.2695 163.018 27.0117C164.724 27.7409 166.208 28.7695 167.471 30.0977C168.734 31.4258 169.717 32.9883 170.42 34.7852C171.123 36.569 171.475 38.5091 171.475 40.6055C171.475 42.7148 171.123 44.6615 170.42 46.4453C169.717 48.2292 168.734 49.7852 167.471 51.1133C166.208 52.4414 164.73 53.4766 163.038 54.2188C161.345 54.9479 159.502 55.3125 157.51 55.3125ZM157.452 52.9883C159.092 52.9883 160.609 52.6823 162.002 52.0703C163.409 51.4453 164.626 50.5729 165.655 49.4531C166.696 48.3333 167.504 47.0247 168.077 45.5273C168.649 44.0169 168.936 42.3698 168.936 40.5859C168.936 38.7891 168.643 37.1419 168.057 35.6445C167.471 34.1341 166.657 32.8255 165.616 31.7188C164.587 30.612 163.376 29.7526 161.983 29.1406C160.59 28.5286 159.079 28.2227 157.452 28.2227C155.863 28.2227 154.379 28.5286 152.998 29.1406C151.631 29.7526 150.427 30.612 149.385 31.7188C148.357 32.8255 147.549 34.1341 146.963 35.6445C146.39 37.1419 146.104 38.7891 146.104 40.5859C146.104 42.3698 146.39 44.0169 146.963 45.5273C147.536 47.0378 148.337 48.3529 149.366 49.4727C150.394 50.5794 151.599 51.4453 152.979 52.0703C154.359 52.6823 155.85 52.9883 157.452 52.9883ZM186.123 55L174.228 26.2109H177.041L183.33 42.0312L187.08 51.4648H187.236L191.064 42.0312L197.334 26.2109H200.127L188.232 55H186.123ZM216.805 55.3125C214.826 55.3125 212.984 54.9479 211.278 54.2188C209.585 53.4766 208.108 52.4414 206.845 51.1133C205.582 49.7852 204.598 48.2292 203.895 46.4453C203.205 44.6484 202.86 42.6953 202.86 40.5859C202.86 38.4896 203.205 36.5495 203.895 34.7656C204.598 32.9818 205.575 31.4258 206.825 30.0977C208.088 28.7695 209.559 27.7409 211.239 27.0117C212.932 26.2695 214.768 25.8984 216.747 25.8984C218.752 25.8984 220.608 26.2695 222.313 27.0117C224.019 27.7409 225.503 28.7695 226.766 30.0977C228.029 31.4258 229.013 32.9883 229.716 34.7852C230.419 36.569 230.77 38.5091 230.77 40.6055C230.77 42.7148 230.419 44.6615 229.716 46.4453C229.013 48.2292 228.029 49.7852 226.766 51.1133C225.503 52.4414 224.026 53.4766 222.333 54.2188C220.64 54.9479 218.798 55.3125 216.805 55.3125ZM216.747 52.9883C218.388 52.9883 219.904 52.6823 221.298 52.0703C222.704 51.4453 223.921 50.5729 224.95 49.4531C225.992 48.3333 226.799 47.0247 227.372 45.5273C227.945 44.0169 228.231 42.3698 228.231 40.5859C228.231 38.7891 227.938 37.1419 227.352 35.6445C226.766 34.1341 225.953 32.8255 224.911 31.7188C223.882 30.612 222.671 29.7526 221.278 29.1406C219.885 28.5286 218.374 28.2227 216.747 28.2227C215.158 28.2227 213.674 28.5286 212.294 29.1406C210.927 29.7526 209.722 30.612 208.68 31.7188C207.652 32.8255 206.845 34.1341 206.259 35.6445C205.686 37.1419 205.399 38.7891 205.399 40.5859C205.399 42.3698 205.686 44.0169 206.259 45.5273C206.832 47.0378 207.632 48.3529 208.661 49.4727C209.69 50.5794 210.894 51.4453 212.274 52.0703C213.654 52.6823 215.145 52.9883 216.747 52.9883ZM249.891 55.3125C247.951 55.3125 246.121 54.9414 244.402 54.1992C242.697 53.457 241.193 52.4154 239.891 51.0742C238.589 49.7331 237.566 48.1706 236.824 46.3867C236.095 44.6029 235.73 42.6693 235.73 40.5859C235.73 38.4245 236.115 36.4518 236.883 34.668C237.651 32.8711 238.699 31.3216 240.027 30.0195C241.368 28.7044 242.898 27.6888 244.617 26.9727C246.336 26.2565 248.146 25.8984 250.047 25.8984C251.701 25.8984 253.296 26.1589 254.832 26.6797C256.382 27.1875 257.71 27.8711 258.816 28.7305L257.84 31.0547C256.915 30.1432 255.75 29.4466 254.344 28.9648C252.938 28.4701 251.518 28.2227 250.086 28.2227C248.562 28.2227 247.098 28.5221 245.691 29.1211C244.285 29.707 243.022 30.5469 241.902 31.6406C240.783 32.7344 239.897 34.0365 239.246 35.5469C238.595 37.0443 238.27 38.7174 238.27 40.5664C238.27 42.3633 238.582 44.0234 239.207 45.5469C239.845 47.0573 240.711 48.3724 241.805 49.4922C242.911 50.599 244.168 51.4583 245.574 52.0703C246.98 52.6823 248.458 52.9883 250.008 52.9883C251.076 52.9883 252.117 52.8516 253.133 52.5781C254.161 52.2917 255.086 51.9141 255.906 51.4453C256.74 50.9635 257.41 50.4427 257.918 49.8828L258.895 52.168C257.775 53.1315 256.408 53.8997 254.793 54.4727C253.191 55.0326 251.557 55.3125 249.891 55.3125ZM274.363 55.3125C272.37 55.3125 270.626 54.9023 269.128 54.082C267.644 53.2487 266.485 52.0768 265.652 50.5664C264.831 49.056 264.421 47.2852 264.421 45.2539V26.2109H266.96V45.1172C266.96 46.7057 267.266 48.0924 267.878 49.2773C268.503 50.4492 269.369 51.3607 270.476 52.0117C271.583 52.6628 272.878 52.9883 274.363 52.9883C276.628 52.9883 278.425 52.2721 279.753 50.8398C281.081 49.3945 281.745 47.487 281.745 45.1172V26.2109H284.284V45.2539C284.284 47.2852 283.881 49.056 283.073 50.5664C282.266 52.0768 281.114 53.2487 279.616 54.082C278.132 54.9023 276.381 55.3125 274.363 55.3125ZM293.952 42.7539V40.5078H300.123C301.399 40.5078 302.513 40.2539 303.463 39.7461C304.427 39.2383 305.176 38.5286 305.709 37.6172C306.256 36.7057 306.53 35.638 306.53 34.4141C306.53 32.5781 305.924 31.1393 304.713 30.0977C303.502 29.056 301.907 28.5352 299.928 28.5352H293.952V26.2109H300.299C301.966 26.2109 303.463 26.5365 304.791 27.1875C306.12 27.8255 307.161 28.75 307.916 29.9609C308.685 31.1589 309.069 32.5846 309.069 34.2383C309.069 35.8008 308.704 37.2266 307.975 38.5156C307.246 39.8047 306.211 40.8333 304.87 41.6016C303.528 42.3698 301.94 42.7539 300.104 42.7539H293.952ZM292.37 55V26.2109H294.909V55H292.37ZM308.248 55L300.084 42.3828L301.998 40.8203L311.178 55H308.248ZM317.545 55V26.2109H320.103V55H317.545ZM335.942 55.3125C334.432 55.3125 333.071 55.013 331.86 54.4141C330.662 53.8151 329.647 53.0469 328.813 52.1094C327.98 51.1719 327.374 50.1953 326.997 49.1797L329.399 48.1641C329.712 49.0755 330.187 49.8958 330.825 50.625C331.463 51.3411 332.225 51.9141 333.11 52.3438C333.996 52.7604 334.959 52.9688 336.001 52.9688C337.055 52.9688 338.032 52.7409 338.93 52.2852C339.829 51.8294 340.552 51.1979 341.098 50.3906C341.658 49.5703 341.938 48.6198 341.938 47.5391C341.938 46.5104 341.691 45.6315 341.196 44.9023C340.701 44.1602 340.089 43.5482 339.36 43.0664C338.644 42.5846 337.915 42.194 337.173 41.8945C336.43 41.5951 335.805 41.3477 335.298 41.1523C333.97 40.6576 332.739 40.0586 331.606 39.3555C330.486 38.6523 329.582 37.7799 328.891 36.7383C328.201 35.6966 327.856 34.4271 327.856 32.9297C327.856 31.5234 328.175 30.293 328.813 29.2383C329.451 28.1836 330.343 27.3633 331.489 26.7773C332.635 26.1914 333.97 25.8984 335.493 25.8984C336.912 25.8984 338.149 26.1328 339.204 26.6016C340.259 27.0703 341.137 27.6758 341.841 28.418C342.544 29.1602 343.084 29.9414 343.462 30.7617L341.216 31.6602C340.942 31.1523 340.552 30.638 340.044 30.1172C339.549 29.5833 338.924 29.1406 338.169 28.7891C337.414 28.4245 336.528 28.2422 335.512 28.2422C334.054 28.2422 332.83 28.6654 331.841 29.5117C330.851 30.3451 330.356 31.4909 330.356 32.9492C330.356 33.8477 330.539 34.6289 330.903 35.293C331.268 35.944 331.736 36.5039 332.309 36.9727C332.895 37.4284 333.514 37.819 334.165 38.1445C334.829 38.4701 335.454 38.7435 336.04 38.9648C336.665 39.1862 337.446 39.4857 338.384 39.8633C339.321 40.2409 340.252 40.7422 341.177 41.3672C342.101 41.9922 342.869 42.7995 343.481 43.7891C344.106 44.7656 344.419 45.9831 344.419 47.4414C344.419 49.043 344.015 50.4362 343.208 51.6211C342.414 52.793 341.372 53.7044 340.083 54.3555C338.807 54.9935 337.427 55.3125 335.942 55.3125Z"/>
</mask>
<path d="M115.812 55V26.2109H117.804L131.417 45.7617L134.445 50.293H134.601L134.542 42.8516V26.2109H137.101V55H135.128L121.534 35.4102L118.468 30.957H118.312L118.351 38.1445V55H115.812ZM157.51 55.3125C155.531 55.3125 153.689 54.9479 151.983 54.2188C150.29 53.4766 148.812 52.4414 147.549 51.1133C146.286 49.7852 145.303 48.2292 144.6 46.4453C143.91 44.6484 143.565 42.6953 143.565 40.5859C143.565 38.4896 143.91 36.5495 144.6 34.7656C145.303 32.9818 146.28 31.4258 147.53 30.0977C148.793 28.7695 150.264 27.7409 151.944 27.0117C153.636 26.2695 155.472 25.8984 157.452 25.8984C159.457 25.8984 161.312 26.2695 163.018 27.0117C164.724 27.7409 166.208 28.7695 167.471 30.0977C168.734 31.4258 169.717 32.9883 170.42 34.7852C171.123 36.569 171.475 38.5091 171.475 40.6055C171.475 42.7148 171.123 44.6615 170.42 46.4453C169.717 48.2292 168.734 49.7852 167.471 51.1133C166.208 52.4414 164.73 53.4766 163.038 54.2188C161.345 54.9479 159.502 55.3125 157.51 55.3125ZM157.452 52.9883C159.092 52.9883 160.609 52.6823 162.002 52.0703C163.409 51.4453 164.626 50.5729 165.655 49.4531C166.696 48.3333 167.504 47.0247 168.077 45.5273C168.649 44.0169 168.936 42.3698 168.936 40.5859C168.936 38.7891 168.643 37.1419 168.057 35.6445C167.471 34.1341 166.657 32.8255 165.616 31.7188C164.587 30.612 163.376 29.7526 161.983 29.1406C160.59 28.5286 159.079 28.2227 157.452 28.2227C155.863 28.2227 154.379 28.5286 152.998 29.1406C151.631 29.7526 150.427 30.612 149.385 31.7188C148.357 32.8255 147.549 34.1341 146.963 35.6445C146.39 37.1419 146.104 38.7891 146.104 40.5859C146.104 42.3698 146.39 44.0169 146.963 45.5273C147.536 47.0378 148.337 48.3529 149.366 49.4727C150.394 50.5794 151.599 51.4453 152.979 52.0703C154.359 52.6823 155.85 52.9883 157.452 52.9883ZM186.123 55L174.228 26.2109H177.041L183.33 42.0312L187.08 51.4648H187.236L191.064 42.0312L197.334 26.2109H200.127L188.232 55H186.123ZM216.805 55.3125C214.826 55.3125 212.984 54.9479 211.278 54.2188C209.585 53.4766 208.108 52.4414 206.845 51.1133C205.582 49.7852 204.598 48.2292 203.895 46.4453C203.205 44.6484 202.86 42.6953 202.86 40.5859C202.86 38.4896 203.205 36.5495 203.895 34.7656C204.598 32.9818 205.575 31.4258 206.825 30.0977C208.088 28.7695 209.559 27.7409 211.239 27.0117C212.932 26.2695 214.768 25.8984 216.747 25.8984C218.752 25.8984 220.608 26.2695 222.313 27.0117C224.019 27.7409 225.503 28.7695 226.766 30.0977C228.029 31.4258 229.013 32.9883 229.716 34.7852C230.419 36.569 230.77 38.5091 230.77 40.6055C230.77 42.7148 230.419 44.6615 229.716 46.4453C229.013 48.2292 228.029 49.7852 226.766 51.1133C225.503 52.4414 224.026 53.4766 222.333 54.2188C220.64 54.9479 218.798 55.3125 216.805 55.3125ZM216.747 52.9883C218.388 52.9883 219.904 52.6823 221.298 52.0703C222.704 51.4453 223.921 50.5729 224.95 49.4531C225.992 48.3333 226.799 47.0247 227.372 45.5273C227.945 44.0169 228.231 42.3698 228.231 40.5859C228.231 38.7891 227.938 37.1419 227.352 35.6445C226.766 34.1341 225.953 32.8255 224.911 31.7188C223.882 30.612 222.671 29.7526 221.278 29.1406C219.885 28.5286 218.374 28.2227 216.747 28.2227C215.158 28.2227 213.674 28.5286 212.294 29.1406C210.927 29.7526 209.722 30.612 208.68 31.7188C207.652 32.8255 206.845 34.1341 206.259 35.6445C205.686 37.1419 205.399 38.7891 205.399 40.5859C205.399 42.3698 205.686 44.0169 206.259 45.5273C206.832 47.0378 207.632 48.3529 208.661 49.4727C209.69 50.5794 210.894 51.4453 212.274 52.0703C213.654 52.6823 215.145 52.9883 216.747 52.9883ZM249.891 55.3125C247.951 55.3125 246.121 54.9414 244.402 54.1992C242.697 53.457 241.193 52.4154 239.891 51.0742C238.589 49.7331 237.566 48.1706 236.824 46.3867C236.095 44.6029 235.73 42.6693 235.73 40.5859C235.73 38.4245 236.115 36.4518 236.883 34.668C237.651 32.8711 238.699 31.3216 240.027 30.0195C241.368 28.7044 242.898 27.6888 244.617 26.9727C246.336 26.2565 248.146 25.8984 250.047 25.8984C251.701 25.8984 253.296 26.1589 254.832 26.6797C256.382 27.1875 257.71 27.8711 258.816 28.7305L257.84 31.0547C256.915 30.1432 255.75 29.4466 254.344 28.9648C252.938 28.4701 251.518 28.2227 250.086 28.2227C248.562 28.2227 247.098 28.5221 245.691 29.1211C244.285 29.707 243.022 30.5469 241.902 31.6406C240.783 32.7344 239.897 34.0365 239.246 35.5469C238.595 37.0443 238.27 38.7174 238.27 40.5664C238.27 42.3633 238.582 44.0234 239.207 45.5469C239.845 47.0573 240.711 48.3724 241.805 49.4922C242.911 50.599 244.168 51.4583 245.574 52.0703C246.98 52.6823 248.458 52.9883 250.008 52.9883C251.076 52.9883 252.117 52.8516 253.133 52.5781C254.161 52.2917 255.086 51.9141 255.906 51.4453C256.74 50.9635 257.41 50.4427 257.918 49.8828L258.895 52.168C257.775 53.1315 256.408 53.8997 254.793 54.4727C253.191 55.0326 251.557 55.3125 249.891 55.3125ZM274.363 55.3125C272.37 55.3125 270.626 54.9023 269.128 54.082C267.644 53.2487 266.485 52.0768 265.652 50.5664C264.831 49.056 264.421 47.2852 264.421 45.2539V26.2109H266.96V45.1172C266.96 46.7057 267.266 48.0924 267.878 49.2773C268.503 50.4492 269.369 51.3607 270.476 52.0117C271.583 52.6628 272.878 52.9883 274.363 52.9883C276.628 52.9883 278.425 52.2721 279.753 50.8398C281.081 49.3945 281.745 47.487 281.745 45.1172V26.2109H284.284V45.2539C284.284 47.2852 283.881 49.056 283.073 50.5664C282.266 52.0768 281.114 53.2487 279.616 54.082C278.132 54.9023 276.381 55.3125 274.363 55.3125ZM293.952 42.7539V40.5078H300.123C301.399 40.5078 302.513 40.2539 303.463 39.7461C304.427 39.2383 305.176 38.5286 305.709 37.6172C306.256 36.7057 306.53 35.638 306.53 34.4141C306.53 32.5781 305.924 31.1393 304.713 30.0977C303.502 29.056 301.907 28.5352 299.928 28.5352H293.952V26.2109H300.299C301.966 26.2109 303.463 26.5365 304.791 27.1875C306.12 27.8255 307.161 28.75 307.916 29.9609C308.685 31.1589 309.069 32.5846 309.069 34.2383C309.069 35.8008 308.704 37.2266 307.975 38.5156C307.246 39.8047 306.211 40.8333 304.87 41.6016C303.528 42.3698 301.94 42.7539 300.104 42.7539H293.952ZM292.37 55V26.2109H294.909V55H292.37ZM308.248 55L300.084 42.3828L301.998 40.8203L311.178 55H308.248ZM317.545 55V26.2109H320.103V55H317.545ZM335.942 55.3125C334.432 55.3125 333.071 55.013 331.86 54.4141C330.662 53.8151 329.647 53.0469 328.813 52.1094C327.98 51.1719 327.374 50.1953 326.997 49.1797L329.399 48.1641C329.712 49.0755 330.187 49.8958 330.825 50.625C331.463 51.3411 332.225 51.9141 333.11 52.3438C333.996 52.7604 334.959 52.9688 336.001 52.9688C337.055 52.9688 338.032 52.7409 338.93 52.2852C339.829 51.8294 340.552 51.1979 341.098 50.3906C341.658 49.5703 341.938 48.6198 341.938 47.5391C341.938 46.5104 341.691 45.6315 341.196 44.9023C340.701 44.1602 340.089 43.5482 339.36 43.0664C338.644 42.5846 337.915 42.194 337.173 41.8945C336.43 41.5951 335.805 41.3477 335.298 41.1523C333.97 40.6576 332.739 40.0586 331.606 39.3555C330.486 38.6523 329.582 37.7799 328.891 36.7383C328.201 35.6966 327.856 34.4271 327.856 32.9297C327.856 31.5234 328.175 30.293 328.813 29.2383C329.451 28.1836 330.343 27.3633 331.489 26.7773C332.635 26.1914 333.97 25.8984 335.493 25.8984C336.912 25.8984 338.149 26.1328 339.204 26.6016C340.259 27.0703 341.137 27.6758 341.841 28.418C342.544 29.1602 343.084 29.9414 343.462 30.7617L341.216 31.6602C340.942 31.1523 340.552 30.638 340.044 30.1172C339.549 29.5833 338.924 29.1406 338.169 28.7891C337.414 28.4245 336.528 28.2422 335.512 28.2422C334.054 28.2422 332.83 28.6654 331.841 29.5117C330.851 30.3451 330.356 31.4909 330.356 32.9492C330.356 33.8477 330.539 34.6289 330.903 35.293C331.268 35.944 331.736 36.5039 332.309 36.9727C332.895 37.4284 333.514 37.819 334.165 38.1445C334.829 38.4701 335.454 38.7435 336.04 38.9648C336.665 39.1862 337.446 39.4857 338.384 39.8633C339.321 40.2409 340.252 40.7422 341.177 41.3672C342.101 41.9922 342.869 42.7995 343.481 43.7891C344.106 44.7656 344.419 45.9831 344.419 47.4414C344.419 49.043 344.015 50.4362 343.208 51.6211C342.414 52.793 341.372 53.7044 340.083 54.3555C338.807 54.9935 337.427 55.3125 335.942 55.3125Z" fill="#3167C4"/>
<path d="M115.812 55H114.812V56H115.812V55ZM115.812 26.2109V25.2109H114.812V26.2109H115.812ZM117.804 26.2109L118.625 25.6395L118.326 25.2109H117.804V26.2109ZM131.417 45.7617L132.249 45.2062L132.243 45.1982L132.238 45.1903L131.417 45.7617ZM134.445 50.293L133.613 50.8485L133.91 51.293H134.445V50.293ZM134.601 50.293V51.293H135.609L135.601 50.2851L134.601 50.293ZM134.542 42.8516L133.542 42.8516L133.542 42.8594L134.542 42.8516ZM134.542 26.2109V25.2109H133.542V26.2109H134.542ZM137.101 26.2109H138.101V25.2109H137.101V26.2109ZM137.101 55V56H138.101V55H137.101ZM135.128 55L134.307 55.5701L134.605 56H135.128V55ZM121.534 35.4102L120.711 35.9773L120.713 35.9803L121.534 35.4102ZM118.468 30.957L119.292 30.3899L118.994 29.957H118.468V30.957ZM118.312 30.957V29.957H117.306L117.312 30.9625L118.312 30.957ZM118.351 38.1445L119.351 38.1445L119.351 38.1391L118.351 38.1445ZM118.351 55V56H119.351V55H118.351ZM115.812 55H116.812V26.2109H115.812H114.812V55H115.812ZM115.812 26.2109V27.2109H117.804V26.2109V25.2109H115.812V26.2109ZM117.804 26.2109L116.983 26.7824L130.597 46.3331L131.417 45.7617L132.238 45.1903L118.625 25.6395L117.804 26.2109ZM131.417 45.7617L130.586 46.3172L133.613 50.8485L134.445 50.293L135.276 49.7374L132.249 45.2062L131.417 45.7617ZM134.445 50.293V51.293H134.601V50.293V49.293H134.445V50.293ZM134.601 50.293L135.601 50.2851L135.542 42.8437L134.542 42.8516L133.542 42.8594L133.601 50.3008L134.601 50.293ZM134.542 42.8516H135.542V26.2109H134.542H133.542V42.8516H134.542ZM134.542 26.2109V27.2109H137.101V26.2109V25.2109H134.542V26.2109ZM137.101 26.2109H136.101V55H137.101H138.101V26.2109H137.101ZM137.101 55V54H135.128V55V56H137.101V55ZM135.128 55L135.95 54.4299L122.356 34.8401L121.534 35.4102L120.713 35.9803L134.307 55.5701L135.128 55ZM121.534 35.4102L122.358 34.843L119.292 30.3899L118.468 30.957L117.644 31.5242L120.711 35.9773L121.534 35.4102ZM118.468 30.957V29.957H118.312V30.957V31.957H118.468V30.957ZM118.312 30.957L117.312 30.9625L117.351 38.15L118.351 38.1445L119.351 38.1391L119.312 30.9516L118.312 30.957ZM118.351 38.1445H117.351V55H118.351H119.351V38.1445H118.351ZM118.351 55V54H115.812V55V56H118.351V55ZM151.983 54.2188L151.581 55.1346L151.59 55.1383L151.983 54.2188ZM147.549 51.1133L146.825 51.8024L147.549 51.1133ZM144.6 46.4453L143.666 46.8039L143.67 46.812L144.6 46.4453ZM144.6 34.7656L143.67 34.3989L143.667 34.4048L144.6 34.7656ZM147.53 30.0977L146.805 29.4085L146.801 29.4123L147.53 30.0977ZM151.944 27.0117L152.342 27.929L152.345 27.9276L151.944 27.0117ZM163.018 27.0117L162.619 27.9287L162.625 27.9312L163.018 27.0117ZM170.42 34.7852L169.489 35.1496L169.49 35.1519L170.42 34.7852ZM163.038 54.2188L163.433 55.1372L163.439 55.1346L163.038 54.2188ZM162.002 52.0703L162.405 52.9859L162.408 52.9841L162.002 52.0703ZM165.655 49.4531L164.922 48.772L164.918 48.7766L165.655 49.4531ZM168.077 45.5273L169.011 45.8847L169.012 45.882L168.077 45.5273ZM168.057 35.6445L167.125 36.0062L167.126 36.0089L168.057 35.6445ZM165.616 31.7188L164.883 32.3995L164.887 32.4041L165.616 31.7188ZM161.983 29.1406L162.385 28.2251L161.983 29.1406ZM152.998 29.1406L152.593 28.2265L152.59 28.2279L152.998 29.1406ZM149.385 31.7188L148.657 31.0334L148.653 31.038L149.385 31.7188ZM146.963 35.6445L146.031 35.2829L146.029 35.2872L146.963 35.6445ZM149.366 49.4727L148.629 50.1492L148.633 50.1534L149.366 49.4727ZM152.979 52.0703L152.566 52.9813L152.574 52.9845L152.979 52.0703ZM157.51 55.3125V54.3125C155.657 54.3125 153.949 53.9718 152.376 53.2992L151.983 54.2188L151.59 55.1383C153.428 55.924 155.405 56.3125 157.51 56.3125V55.3125ZM151.983 54.2188L152.384 53.3029C150.812 52.6136 149.445 51.6552 148.274 50.4242L147.549 51.1133L146.825 51.8024C148.18 53.2276 149.768 54.3395 151.581 55.1346L151.983 54.2188ZM147.549 51.1133L148.274 50.4242C147.104 49.1936 146.188 47.7484 145.53 46.0786L144.6 46.4453L143.67 46.812C144.418 48.71 145.469 50.3768 146.825 51.8024L147.549 51.1133ZM144.6 46.4453L145.534 46.0868C144.891 44.4148 144.565 42.5845 144.565 40.5859H143.565H142.565C142.565 42.8061 142.928 44.882 143.666 46.8038L144.6 46.4453ZM143.565 40.5859H144.565C144.565 38.6011 144.891 36.7846 145.533 35.1264L144.6 34.7656L143.667 34.4048C142.929 36.3143 142.565 38.3781 142.565 40.5859H143.565ZM144.6 34.7656L145.53 35.1323C146.189 33.4604 147.099 32.014 148.258 30.783L147.53 30.0977L146.801 29.4123C145.46 30.8375 144.417 32.5031 143.67 34.3989L144.6 34.7656ZM147.53 30.0977L148.254 30.7868C149.425 29.5557 150.785 28.6047 152.342 27.929L151.944 27.0117L151.546 26.0944C149.743 26.877 148.16 27.9833 146.805 29.4085L147.53 30.0977ZM151.944 27.0117L152.345 27.9276C153.903 27.2447 155.601 26.8984 157.452 26.8984V25.8984V24.8984C155.344 24.8984 153.37 25.2943 151.542 26.0959L151.944 27.0117ZM157.452 25.8984V26.8984C159.33 26.8984 161.049 27.2454 162.619 27.9287L163.018 27.0117L163.417 26.0948C161.576 25.2936 159.583 24.8984 157.452 24.8984V25.8984ZM163.018 27.0117L162.625 27.9312C164.207 28.6076 165.578 29.5584 166.746 30.7868L167.471 30.0977L168.196 29.4085C166.838 27.9806 165.24 26.8742 163.411 26.0922L163.018 27.0117ZM167.471 30.0977L166.746 30.7868C167.916 32.0162 168.831 33.4668 169.489 35.1496L170.42 34.7852L171.352 34.4208C170.604 32.5097 169.553 30.8354 168.196 29.4085L167.471 30.0977ZM170.42 34.7852L169.49 35.1519C170.143 36.8085 170.475 38.6229 170.475 40.6055H171.475H172.475C172.475 38.3953 172.104 36.3295 171.351 34.4185L170.42 34.7852ZM171.475 40.6055H170.475C170.475 42.6019 170.143 44.4227 169.49 46.0786L170.42 46.4453L171.351 46.812C172.104 44.9002 172.475 42.8278 172.475 40.6055H171.475ZM170.42 46.4453L169.49 46.0786C168.832 47.7484 167.917 49.1936 166.746 50.4242L167.471 51.1133L168.196 51.8024C169.551 50.3768 170.603 48.71 171.351 46.812L170.42 46.4453ZM167.471 51.1133L166.746 50.4242C165.576 51.6552 164.208 52.6136 162.636 53.3029L163.038 54.2188L163.439 55.1346C165.252 54.3395 166.84 53.2276 168.196 51.8024L167.471 51.1133ZM163.038 54.2188L162.642 53.3003C161.084 53.9714 159.377 54.3125 157.51 54.3125V55.3125V56.3125C159.627 56.3125 161.606 55.9244 163.433 55.1372L163.038 54.2188ZM157.452 52.9883V53.9883C159.22 53.9883 160.875 53.6578 162.405 52.9859L162.002 52.0703L161.6 51.1547C160.343 51.7068 158.965 51.9883 157.452 51.9883V52.9883ZM162.002 52.0703L162.408 52.9841C163.938 52.3042 165.269 51.3516 166.391 50.1296L165.655 49.4531L164.918 48.7766C163.983 49.7943 162.879 50.5865 161.596 51.1565L162.002 52.0703ZM165.655 49.4531L166.387 50.1342C167.52 48.916 168.394 47.4961 169.011 45.8847L168.077 45.5273L167.143 45.17C166.613 46.5534 165.873 47.7507 164.923 48.772L165.655 49.4531ZM168.077 45.5273L169.012 45.882C169.632 44.2471 169.936 42.4784 169.936 40.5859H168.936H167.936C167.936 42.2612 167.667 43.7868 167.142 45.1727L168.077 45.5273ZM168.936 40.5859H169.936C169.936 38.679 169.625 36.9065 168.988 35.2801L168.057 35.6445L167.126 36.0089C167.661 37.3773 167.936 38.8992 167.936 40.5859H168.936ZM168.057 35.6445L168.989 35.2829C168.36 33.6604 167.479 32.24 166.344 31.0334L165.616 31.7188L164.887 32.4041C165.835 33.4111 166.582 34.6078 167.125 36.0062L168.057 35.6445ZM165.616 31.7188L166.348 31.038C165.226 29.8305 163.902 28.8915 162.385 28.2251L161.983 29.1406L161.581 30.0562C162.85 30.6137 163.948 31.3935 164.883 32.3995L165.616 31.7188ZM161.983 29.1406L162.385 28.2251C160.856 27.5536 159.208 27.2227 157.452 27.2227V28.2227V29.2227C158.95 29.2227 160.323 29.5037 161.581 30.0562L161.983 29.1406ZM157.452 28.2227V27.2227C155.731 27.2227 154.108 27.5549 152.593 28.2265L152.998 29.1406L153.404 30.0548C154.65 29.5023 155.995 29.2227 157.452 29.2227V28.2227ZM152.998 29.1406L152.59 28.2279C151.1 28.8946 149.788 29.8319 148.657 31.0334L149.385 31.7188L150.113 32.4041C151.066 31.392 152.162 30.6106 153.407 30.0534L152.998 29.1406ZM149.385 31.7188L148.653 31.038C147.532 32.244 146.659 33.663 146.031 35.2829L146.963 35.6445L147.896 36.0062C148.439 34.6052 149.181 33.407 150.118 32.3995L149.385 31.7188ZM146.963 35.6445L146.029 35.2872C145.408 36.9116 145.104 38.6816 145.104 40.5859H146.104H147.104C147.104 38.8965 147.373 37.3722 147.897 36.0019L146.963 35.6445ZM146.104 40.5859H145.104C145.104 42.4784 145.408 44.2471 146.028 45.882L146.963 45.5273L147.898 45.1727C147.373 43.7868 147.104 42.2612 147.104 40.5859H146.104ZM146.963 45.5273L146.028 45.882C146.643 47.5038 147.509 48.9299 148.629 50.1492L149.366 49.4727L150.102 48.7962C149.165 47.7758 148.429 46.5717 147.898 45.1727L146.963 45.5273ZM149.366 49.4727L148.633 50.1534C149.752 51.3577 151.066 52.3017 152.566 52.9813L152.979 52.0703L153.391 51.1594C152.132 50.5889 151.036 49.8012 150.098 48.7919L149.366 49.4727ZM152.979 52.0703L152.574 52.9845C154.089 53.6565 155.719 53.9883 157.452 53.9883V52.9883V51.9883C155.981 51.9883 154.629 51.7081 153.384 51.1561L152.979 52.0703ZM186.123 55L185.198 55.3819L185.454 56H186.123V55ZM174.228 26.2109V25.2109H172.733L173.304 26.5928L174.228 26.2109ZM177.041 26.2109L177.97 25.8415L177.719 25.2109H177.041V26.2109ZM183.33 42.0312L184.259 41.6619L184.259 41.6618L183.33 42.0312ZM187.08 51.4648L186.15 51.8342L186.401 52.4648H187.08V51.4648ZM187.236 51.4648V52.4648H187.909L188.163 51.8409L187.236 51.4648ZM191.064 42.0312L191.991 42.4073L191.994 42.3997L191.064 42.0312ZM197.334 26.2109V25.2109H196.654L196.404 25.8425L197.334 26.2109ZM200.127 26.2109L201.051 26.5928L201.622 25.2109H200.127V26.2109ZM188.232 55V56H188.901L189.156 55.3819L188.232 55ZM186.123 55L187.047 54.6181L175.152 25.8291L174.228 26.2109L173.304 26.5928L185.198 55.3819L186.123 55ZM174.228 26.2109V27.2109H177.041V26.2109V25.2109H174.228V26.2109ZM177.041 26.2109L176.111 26.5803L182.4 42.4007L183.33 42.0312L184.259 41.6618L177.97 25.8415L177.041 26.2109ZM183.33 42.0312L182.4 42.4006L186.15 51.8342L187.08 51.4648L188.009 51.0954L184.259 41.6619L183.33 42.0312ZM187.08 51.4648V52.4648H187.236V51.4648V50.4648H187.08V51.4648ZM187.236 51.4648L188.163 51.8409L191.991 42.4073L191.064 42.0312L190.137 41.6552L186.309 51.0888L187.236 51.4648ZM191.064 42.0312L191.994 42.3997L198.263 26.5794L197.334 26.2109L196.404 25.8425L190.134 41.6628L191.064 42.0312ZM197.334 26.2109V27.2109H200.127V26.2109V25.2109H197.334V26.2109ZM200.127 26.2109L199.202 25.8291L187.308 54.6181L188.232 55L189.156 55.3819L201.051 26.5928L200.127 26.2109ZM188.232 55V54H186.123V55V56H188.232V55ZM211.278 54.2188L210.877 55.1346L210.885 55.1383L211.278 54.2188ZM206.845 51.1133L206.12 51.8024L206.845 51.1133ZM203.895 46.4453L202.962 46.8039L202.965 46.812L203.895 46.4453ZM203.895 34.7656L202.965 34.3989L202.963 34.4048L203.895 34.7656ZM206.825 30.0977L206.1 29.4085L206.097 29.4123L206.825 30.0977ZM211.239 27.0117L211.637 27.929L211.641 27.9276L211.239 27.0117ZM222.313 27.0117L221.914 27.9287L221.92 27.9312L222.313 27.0117ZM229.716 34.7852L228.784 35.1496L228.785 35.1519L229.716 34.7852ZM222.333 54.2188L222.728 55.1372L222.734 55.1346L222.333 54.2188ZM221.298 52.0703L221.7 52.9859L221.704 52.9841L221.298 52.0703ZM224.95 49.4531L224.218 48.772L224.214 48.7766L224.95 49.4531ZM227.372 45.5273L228.306 45.8847L228.307 45.882L227.372 45.5273ZM227.352 35.6445L226.42 36.0062L226.421 36.0089L227.352 35.6445ZM224.911 31.7188L224.178 32.3995L224.183 32.4041L224.911 31.7188ZM221.278 29.1406L221.68 28.2251L221.278 29.1406ZM212.294 29.1406L211.888 28.2265L211.885 28.2279L212.294 29.1406ZM208.68 31.7188L207.952 31.0334L207.948 31.038L208.68 31.7188ZM206.259 35.6445L205.326 35.2829L205.325 35.2872L206.259 35.6445ZM208.661 49.4727L207.924 50.1492L207.928 50.1534L208.661 49.4727ZM212.274 52.0703L211.862 52.9813L211.869 52.9845L212.274 52.0703ZM216.805 55.3125V54.3125C214.952 54.3125 213.245 53.9718 211.671 53.2992L211.278 54.2188L210.885 55.1383C212.723 55.924 214.7 56.3125 216.805 56.3125V55.3125ZM211.278 54.2188L211.68 53.3029C210.108 52.6136 208.74 51.6552 207.569 50.4242L206.845 51.1133L206.12 51.8024C207.475 53.2276 209.063 54.3395 210.877 55.1346L211.278 54.2188ZM206.845 51.1133L207.569 50.4242C206.399 49.1936 205.484 47.7484 204.826 46.0786L203.895 46.4453L202.965 46.812C203.713 48.71 204.764 50.3768 206.12 51.8024L206.845 51.1133ZM203.895 46.4453L204.829 46.0868C204.187 44.4148 203.86 42.5845 203.86 40.5859H202.86H201.86C201.86 42.8061 202.224 44.882 202.962 46.8038L203.895 46.4453ZM202.86 40.5859H203.86C203.86 38.6011 204.186 36.7846 204.828 35.1264L203.895 34.7656L202.963 34.4048C202.224 36.3143 201.86 38.3781 201.86 40.5859H202.86ZM203.895 34.7656L204.826 35.1323C205.485 33.4604 206.395 32.014 207.553 30.783L206.825 30.0977L206.097 29.4123C204.755 30.8375 203.712 32.5031 202.965 34.3989L203.895 34.7656ZM206.825 30.0977L207.55 30.7868C208.72 29.5557 210.081 28.6047 211.637 27.929L211.239 27.0117L210.841 26.0944C209.038 26.877 207.456 27.9833 206.1 29.4085L206.825 30.0977ZM211.239 27.0117L211.641 27.9276C213.198 27.2447 214.896 26.8984 216.747 26.8984V25.8984V24.8984C214.639 24.8984 212.666 25.2943 210.838 26.0959L211.239 27.0117ZM216.747 25.8984V26.8984C218.626 26.8984 220.344 27.2454 221.914 27.9287L222.313 27.0117L222.712 26.0948C220.871 25.2936 218.879 24.8984 216.747 24.8984V25.8984ZM222.313 27.0117L221.92 27.9312C223.502 28.6076 224.874 29.5584 226.042 30.7868L226.766 30.0977L227.491 29.4085C226.133 27.9806 224.536 26.8742 222.706 26.0922L222.313 27.0117ZM226.766 30.0977L226.042 30.7868C227.211 32.0162 228.126 33.4668 228.784 35.1496L229.716 34.7852L230.647 34.4208C229.899 32.5097 228.848 30.8354 227.491 29.4085L226.766 30.0977ZM229.716 34.7852L228.785 35.1519C229.438 36.8085 229.77 38.6229 229.77 40.6055H230.77H231.77C231.77 38.3953 231.399 36.3295 230.646 34.4185L229.716 34.7852ZM230.77 40.6055H229.77C229.77 42.6019 229.438 44.4227 228.785 46.0786L229.716 46.4453L230.646 46.812C231.4 44.9002 231.77 42.8278 231.77 40.6055H230.77ZM229.716 46.4453L228.785 46.0786C228.127 47.7484 227.212 49.1936 226.042 50.4242L226.766 51.1133L227.491 51.8024C228.847 50.3768 229.898 48.71 230.646 46.812L229.716 46.4453ZM226.766 51.1133L226.042 50.4242C224.871 51.6552 223.503 52.6136 221.931 53.3029L222.333 54.2188L222.734 55.1346C224.548 54.3395 226.136 53.2276 227.491 51.8024L226.766 51.1133ZM222.333 54.2188L221.937 53.3003C220.379 53.9714 218.673 54.3125 216.805 54.3125V55.3125V56.3125C218.923 56.3125 220.901 55.9244 222.728 55.1372L222.333 54.2188ZM216.747 52.9883V53.9883C218.515 53.9883 220.17 53.6578 221.7 52.9859L221.298 52.0703L220.895 51.1547C219.639 51.7068 218.26 51.9883 216.747 51.9883V52.9883ZM221.298 52.0703L221.704 52.9841C223.234 52.3042 224.564 51.3516 225.686 50.1296L224.95 49.4531L224.214 48.7766C223.279 49.7943 222.174 50.5865 220.892 51.1565L221.298 52.0703ZM224.95 49.4531L225.682 50.1342C226.815 48.916 227.689 47.4961 228.306 45.8847L227.372 45.5273L226.438 45.17C225.909 46.5534 225.168 47.7507 224.218 48.772L224.95 49.4531ZM227.372 45.5273L228.307 45.882C228.927 44.2471 229.231 42.4784 229.231 40.5859H228.231H227.231C227.231 42.2612 226.963 43.7868 226.437 45.1727L227.372 45.5273ZM228.231 40.5859H229.231C229.231 38.679 228.92 36.9065 228.284 35.2801L227.352 35.6445L226.421 36.0089C226.957 37.3773 227.231 38.8992 227.231 40.5859H228.231ZM227.352 35.6445L228.285 35.2829C227.655 33.6604 226.775 32.24 225.639 31.0334L224.911 31.7188L224.183 32.4041C225.13 33.4111 225.878 34.6078 226.42 36.0062L227.352 35.6445ZM224.911 31.7188L225.643 31.038C224.521 29.8305 223.198 28.8915 221.68 28.2251L221.278 29.1406L220.876 30.0562C222.145 30.6137 223.243 31.3935 224.178 32.3995L224.911 31.7188ZM221.278 29.1406L221.68 28.2251C220.152 27.5536 218.503 27.2227 216.747 27.2227V28.2227V29.2227C218.246 29.2227 219.618 29.5037 220.876 30.0562L221.278 29.1406ZM216.747 28.2227V27.2227C215.026 27.2227 213.403 27.5549 211.888 28.2265L212.294 29.1406L212.699 30.0548C213.945 29.5023 215.291 29.2227 216.747 29.2227V28.2227ZM212.294 29.1406L211.885 28.2279C210.396 28.8946 209.083 29.8319 207.952 31.0334L208.68 31.7188L209.409 32.4041C210.361 31.392 211.457 30.6106 212.702 30.0534L212.294 29.1406ZM208.68 31.7188L207.948 31.038C206.827 32.244 205.955 33.663 205.326 35.2829L206.259 35.6445L207.191 36.0062C207.734 34.6052 208.477 33.407 209.413 32.3995L208.68 31.7188ZM206.259 35.6445L205.325 35.2872C204.703 36.9116 204.399 38.6816 204.399 40.5859H205.399H206.399C206.399 38.8965 206.668 37.3722 207.193 36.0019L206.259 35.6445ZM205.399 40.5859H204.399C204.399 42.4784 204.703 44.2471 205.324 45.882L206.259 45.5273L207.194 45.1727C206.668 43.7868 206.399 42.2612 206.399 40.5859H205.399ZM206.259 45.5273L205.324 45.882C205.939 47.5038 206.805 48.9299 207.924 50.1492L208.661 49.4727L209.397 48.7962C208.46 47.7758 207.724 46.5717 207.194 45.1727L206.259 45.5273ZM208.661 49.4727L207.928 50.1534C209.048 51.3577 210.361 52.3017 211.862 52.9813L212.274 52.0703L212.687 51.1594C211.427 50.5889 210.331 49.8012 209.393 48.7919L208.661 49.4727ZM212.274 52.0703L211.869 52.9845C213.384 53.6565 215.014 53.9883 216.747 53.9883V52.9883V51.9883C215.276 51.9883 213.924 51.7081 212.68 51.1561L212.274 52.0703ZM244.402 54.1992L244.003 55.1162L244.006 55.1173L244.402 54.1992ZM239.891 51.0742L239.173 51.7708L239.891 51.0742ZM236.824 46.3867L235.899 46.7651L235.901 46.7709L236.824 46.3867ZM236.883 34.668L237.801 35.0635L237.802 35.0611L236.883 34.668ZM240.027 30.0195L240.727 30.7336L240.727 30.7335L240.027 30.0195ZM254.832 26.6797L254.511 27.6268L254.521 27.63L254.832 26.6797ZM258.816 28.7305L259.738 29.1178L260.035 28.4109L259.43 27.9406L258.816 28.7305ZM257.84 31.0547L257.138 31.7668L258.19 32.8038L258.762 31.4421L257.84 31.0547ZM254.344 28.9648L254.012 29.9082L254.02 29.9109L254.344 28.9648ZM245.691 29.1211L246.076 30.0442L246.083 30.0411L245.691 29.1211ZM239.246 35.5469L240.163 35.9456L240.164 35.9427L239.246 35.5469ZM239.207 45.5469L238.282 45.9265L238.286 45.936L239.207 45.5469ZM241.805 49.4922L241.089 50.191L241.098 50.1993L241.805 49.4922ZM245.574 52.0703L245.175 52.9872L245.574 52.0703ZM253.133 52.5781L253.393 53.5438L253.401 53.5415L253.133 52.5781ZM255.906 51.4453L256.402 52.3136L256.407 52.311L255.906 51.4453ZM257.918 49.8828L258.838 49.4898L258.225 48.056L257.177 49.211L257.918 49.8828ZM258.895 52.168L259.547 52.926L260.102 52.4484L259.814 51.775L258.895 52.168ZM254.793 54.4727L255.123 55.4166L255.127 55.4151L254.793 54.4727ZM249.891 55.3125V54.3125C248.082 54.3125 246.388 53.9673 244.799 53.2812L244.402 54.1992L244.006 55.1173C245.854 55.9155 247.819 56.3125 249.891 56.3125V55.3125ZM244.402 54.1992L244.801 53.2823C243.216 52.5923 241.82 51.6257 240.608 50.3776L239.891 51.0742L239.173 51.7708C240.566 53.205 242.178 54.3217 244.003 55.1162L244.402 54.1992ZM239.891 51.0742L240.608 50.3776C239.397 49.1298 238.443 47.6742 237.747 46.0026L236.824 46.3867L235.901 46.7709C236.69 48.6669 237.78 50.3363 239.173 51.7708L239.891 51.0742ZM236.824 46.3867L237.75 46.0083C237.074 44.354 236.73 42.5501 236.73 40.5859H235.73H234.73C234.73 42.7884 235.116 44.8517 235.899 46.7651L236.824 46.3867ZM235.73 40.5859H236.73C236.73 38.5451 237.093 36.709 237.801 35.0635L236.883 34.668L235.964 34.2724C235.137 36.1946 234.73 38.3039 234.73 40.5859H235.73ZM236.883 34.668L237.802 35.0611C238.522 33.3783 239.497 31.9395 240.727 30.7336L240.027 30.0195L239.327 29.3055C237.901 30.7037 236.78 32.3639 235.963 34.2749L236.883 34.668ZM240.027 30.0195L240.727 30.7335C241.979 29.5068 243.402 28.5625 245.002 27.8957L244.617 26.9727L244.233 26.0496C242.395 26.8151 240.758 27.9021 239.327 29.3055L240.027 30.0195ZM244.617 26.9727L245.002 27.8957C246.596 27.2314 248.275 26.8984 250.047 26.8984V25.8984V24.8984C248.017 24.8984 246.076 25.2816 244.233 26.0496L244.617 26.9727ZM250.047 25.8984V26.8984C251.593 26.8984 253.08 27.1417 254.511 27.6268L254.832 26.6797L255.153 25.7326C253.511 25.1761 251.808 24.8984 250.047 24.8984V25.8984ZM254.832 26.6797L254.521 27.63C255.979 28.1078 257.201 28.7418 258.203 29.5203L258.816 28.7305L259.43 27.9406C258.219 27.0004 256.785 26.2672 255.143 25.7294L254.832 26.6797ZM258.816 28.7305L257.894 28.3431L256.918 30.6673L257.84 31.0547L258.762 31.4421L259.738 29.1178L258.816 28.7305ZM257.84 31.0547L258.542 30.3426C257.496 29.3115 256.195 28.5422 254.668 28.0188L254.344 28.9648L254.02 29.9109C255.305 30.3511 256.335 30.975 257.138 31.7668L257.84 31.0547ZM254.344 28.9648L254.676 28.0215C253.167 27.4908 251.636 27.2227 250.086 27.2227V28.2227V29.2227C251.401 29.2227 252.708 29.4493 254.012 29.9082L254.344 28.9648ZM250.086 28.2227V27.2227C248.427 27.2227 246.829 27.5495 245.3 28.2011L245.691 29.1211L246.083 30.0411C247.366 29.4948 248.698 29.2227 250.086 29.2227V28.2227ZM245.691 29.1211L245.307 28.198C243.78 28.834 242.411 29.7455 241.204 30.9252L241.902 31.6406L242.601 32.356C243.633 31.3483 244.79 30.58 246.076 30.0442L245.691 29.1211ZM241.902 31.6406L241.204 30.9252C239.986 32.1148 239.028 33.527 238.328 35.151L239.246 35.5469L240.164 35.9427C240.766 34.5459 241.579 33.354 242.601 32.356L241.902 31.6406ZM239.246 35.5469L238.329 35.1481C237.616 36.787 237.27 38.5984 237.27 40.5664H238.27H239.27C239.27 38.8365 239.574 37.3016 240.163 35.9456L239.246 35.5469ZM238.27 40.5664H237.27C237.27 42.4815 237.603 44.272 238.282 45.9264L239.207 45.5469L240.132 45.1673C239.561 43.7749 239.27 42.245 239.27 40.5664H238.27ZM239.207 45.5469L238.286 45.936C238.97 47.556 239.904 48.9775 241.089 50.1909L241.805 49.4922L242.52 48.7934C241.518 47.7673 240.72 46.5586 240.128 45.1578L239.207 45.5469ZM241.805 49.4922L241.098 50.1993C242.291 51.3928 243.652 52.3242 245.175 52.9872L245.574 52.0703L245.973 51.1534C244.684 50.5925 243.532 49.8051 242.512 48.7851L241.805 49.4922ZM245.574 52.0703L245.175 52.9872C246.709 53.6546 248.322 53.9883 250.008 53.9883V52.9883V51.9883C248.594 51.9883 247.252 51.71 245.973 51.1534L245.574 52.0703ZM250.008 52.9883V53.9883C251.162 53.9883 252.291 53.8403 253.393 53.5437L253.133 52.5781L252.873 51.6125C251.943 51.8628 250.989 51.9883 250.008 51.9883V52.9883ZM253.133 52.5781L253.401 53.5415C254.499 53.2357 255.502 52.8282 256.402 52.3136L255.906 51.4453L255.41 50.5771C254.67 50.9999 253.824 51.3477 252.865 51.6148L253.133 52.5781ZM255.906 51.4453L256.407 52.311C257.306 51.7909 258.065 51.2089 258.659 50.5546L257.918 49.8828L257.177 49.211C256.755 49.6766 256.173 50.1362 255.406 50.5796L255.906 51.4453ZM257.918 49.8828L256.998 50.2758L257.975 52.5609L258.895 52.168L259.814 51.775L258.838 49.4898L257.918 49.8828ZM258.895 52.168L258.242 51.41C257.23 52.2811 255.975 52.9921 254.459 53.5302L254.793 54.4727L255.127 55.4151C256.84 54.8074 258.32 53.9819 259.547 52.926L258.895 52.168ZM254.793 54.4727L254.463 53.5287C252.966 54.0522 251.443 54.3125 249.891 54.3125V55.3125V56.3125C251.672 56.3125 253.417 56.0129 255.123 55.4166L254.793 54.4727ZM269.128 54.082L268.639 54.9541L268.648 54.9591L269.128 54.082ZM265.652 50.5664L264.773 51.0437L264.776 51.0495L265.652 50.5664ZM264.421 26.2109V25.2109H263.421V26.2109H264.421ZM266.96 26.2109H267.96V25.2109H266.96V26.2109ZM267.878 49.2773L266.99 49.7363L266.996 49.7479L267.878 49.2773ZM279.753 50.8398L280.486 51.5198L280.489 51.5165L279.753 50.8398ZM281.745 26.2109V25.2109H280.745V26.2109H281.745ZM284.284 26.2109H285.284V25.2109H284.284V26.2109ZM283.073 50.5664L282.192 50.095L283.073 50.5664ZM279.616 54.082L280.1 54.9573L280.103 54.9558L279.616 54.082ZM274.363 55.3125V54.3125C272.51 54.3125 270.936 53.9321 269.609 53.205L269.128 54.082L268.648 54.9591C270.315 55.8726 272.231 56.3125 274.363 56.3125V55.3125ZM269.128 54.082L269.618 53.21C268.298 52.4692 267.272 51.433 266.527 50.0833L265.652 50.5664L264.776 51.0495C265.698 52.7206 266.99 54.0282 268.639 54.954L269.128 54.082ZM265.652 50.5664L266.53 50.0891C265.803 48.7497 265.421 47.1488 265.421 45.2539H264.421H263.421C263.421 47.4215 263.86 49.3622 264.773 51.0437L265.652 50.5664ZM264.421 45.2539H265.421V26.2109H264.421H263.421V45.2539H264.421ZM264.421 26.2109V27.2109H266.96V26.2109V25.2109H264.421V26.2109ZM266.96 26.2109H265.96V45.1172H266.96H267.96V26.2109H266.96ZM266.96 45.1172H265.96C265.96 46.8351 266.292 48.3848 266.99 49.7362L267.878 49.2773L268.767 48.8185C268.241 47.8001 267.96 46.5764 267.96 45.1172H266.96ZM267.878 49.2773L266.996 49.7479C267.704 51.0765 268.698 52.1259 269.969 52.8737L270.476 52.0117L270.983 51.1498C270.04 50.5954 269.302 49.822 268.76 48.8068L267.878 49.2773ZM270.476 52.0117L269.969 52.8737C271.252 53.6284 272.728 53.9883 274.363 53.9883V52.9883V51.9883C273.028 51.9883 271.913 51.6971 270.983 51.1498L270.476 52.0117ZM274.363 52.9883V53.9883C276.858 53.9883 278.938 53.1893 280.486 51.5198L279.753 50.8398L279.02 50.1599C277.912 51.3549 276.399 51.9883 274.363 51.9883V52.9883ZM279.753 50.8398L280.489 51.5165C282.021 49.8499 282.745 47.6828 282.745 45.1172H281.745H280.745C280.745 47.2912 280.142 48.9392 279.017 50.1632L279.753 50.8398ZM281.745 45.1172H282.745V26.2109H281.745H280.745V45.1172H281.745ZM281.745 26.2109V27.2109H284.284V26.2109V25.2109H281.745V26.2109ZM284.284 26.2109H283.284V45.2539H284.284H285.284V26.2109H284.284ZM284.284 45.2539H283.284C283.284 47.1513 282.908 48.7544 282.192 50.095L283.073 50.5664L283.955 51.0378C284.853 49.3576 285.284 47.4191 285.284 45.2539H284.284ZM283.073 50.5664L282.192 50.095C281.475 51.436 280.46 52.4682 279.13 53.2082L279.616 54.082L280.103 54.9558C281.768 54.0292 283.058 52.7177 283.955 51.0378L283.073 50.5664ZM279.616 54.082L279.133 53.2068C277.822 53.931 276.244 54.3125 274.363 54.3125V55.3125V56.3125C276.518 56.3125 278.442 55.8737 280.1 54.9573L279.616 54.082ZM293.952 42.7539H292.952V43.7539H293.952V42.7539ZM293.952 40.5078V39.5078H292.952V40.5078H293.952ZM303.463 39.7461L302.997 38.8614L302.992 38.8641L303.463 39.7461ZM305.709 37.6172L304.852 37.1027L304.846 37.1118L305.709 37.6172ZM293.952 28.5352H292.952V29.5352H293.952V28.5352ZM293.952 26.2109V25.2109H292.952V26.2109H293.952ZM304.791 27.1875L304.351 28.0854L304.358 28.0889L304.791 27.1875ZM307.916 29.9609L307.068 30.4902L307.075 30.5008L307.916 29.9609ZM292.37 55H291.37V56H292.37V55ZM292.37 26.2109V25.2109H291.37V26.2109H292.37ZM294.909 26.2109H295.909V25.2109H294.909V26.2109ZM294.909 55V56H295.909V55H294.909ZM308.248 55L307.409 55.5433L307.704 56H308.248V55ZM300.084 42.3828L299.452 41.6082L298.758 42.1744L299.245 42.9261L300.084 42.3828ZM301.998 40.8203L302.838 40.2769L302.231 39.3395L301.366 40.0457L301.998 40.8203ZM311.178 55V56H313.017L312.018 54.4566L311.178 55ZM293.952 42.7539H294.952V40.5078H293.952H292.952V42.7539H293.952ZM293.952 40.5078V41.5078H300.123V40.5078V39.5078H293.952V40.5078ZM300.123 40.5078V41.5078C301.534 41.5078 302.814 41.2265 303.935 40.6281L303.463 39.7461L302.992 38.8641C302.211 39.2813 301.265 39.5078 300.123 39.5078V40.5078ZM303.463 39.7461L303.93 40.6308C305.053 40.0388 305.941 39.2002 306.572 38.1226L305.709 37.6172L304.846 37.1118C304.41 37.8571 303.801 38.4377 302.997 38.8614L303.463 39.7461ZM305.709 37.6172L306.567 38.1317C307.22 37.0425 307.53 35.7913 307.53 34.4141H306.53H305.53C305.53 35.4847 305.292 36.369 304.852 37.1027L305.709 37.6172ZM306.53 34.4141H307.53C307.53 32.3352 306.831 30.6006 305.365 29.3396L304.713 30.0977L304.061 30.8558C305.017 31.678 305.53 32.821 305.53 34.4141H306.53ZM304.713 30.0977L305.365 29.3396C303.933 28.1071 302.087 27.5352 299.928 27.5352V28.5352V29.5352C301.727 29.5352 303.072 30.0049 304.061 30.8558L304.713 30.0977ZM299.928 28.5352V27.5352H293.952V28.5352V29.5352H299.928V28.5352ZM293.952 28.5352H294.952V26.2109H293.952H292.952V28.5352H293.952ZM293.952 26.2109V27.2109H300.299V26.2109V25.2109H293.952V26.2109ZM300.299 26.2109V27.2109C301.833 27.2109 303.177 27.5096 304.351 28.0854L304.791 27.1875L305.232 26.2896C303.75 25.5633 302.099 25.2109 300.299 25.2109V26.2109ZM304.791 27.1875L304.358 28.0889C305.521 28.6476 306.416 29.4456 307.068 30.4901L307.916 29.9609L308.765 29.4318C307.906 28.0544 306.718 27.0035 305.224 26.2861L304.791 27.1875ZM307.916 29.9609L307.075 30.5008C307.724 31.5129 308.069 32.7444 308.069 34.2383H309.069H310.069C310.069 32.4249 309.646 30.8048 308.758 29.4211L307.916 29.9609ZM309.069 34.2383H308.069C308.069 35.6381 307.744 36.8927 307.105 38.0233L307.975 38.5156L308.845 39.008C309.664 37.5604 310.069 35.9635 310.069 34.2383H309.069ZM307.975 38.5156L307.105 38.0233C306.468 39.149 305.565 40.0509 304.372 40.7338L304.87 41.6016L305.367 42.4693C306.857 41.6158 308.024 40.4604 308.845 39.008L307.975 38.5156ZM304.87 41.6016L304.372 40.7338C303.209 41.4004 301.798 41.7539 300.104 41.7539V42.7539V43.7539C302.081 43.7539 303.848 43.3392 305.367 42.4693L304.87 41.6016ZM300.104 42.7539V41.7539H293.952V42.7539V43.7539H300.104V42.7539ZM292.37 55H293.37V26.2109H292.37H291.37V55H292.37ZM292.37 26.2109V27.2109H294.909V26.2109V25.2109H292.37V26.2109ZM294.909 26.2109H293.909V55H294.909H295.909V26.2109H294.909ZM294.909 55V54H292.37V55V56H294.909V55ZM308.248 55L309.088 54.4567L300.924 41.8396L300.084 42.3828L299.245 42.9261L307.409 55.5433L308.248 55ZM300.084 42.3828L300.717 43.1575L302.631 41.595L301.998 40.8203L301.366 40.0457L299.452 41.6082L300.084 42.3828ZM301.998 40.8203L301.159 41.3638L310.339 55.5434L311.178 55L312.018 54.4566L302.838 40.2769L301.998 40.8203ZM311.178 55V54H308.248V55V56H311.178V55ZM317.545 55H316.545V56H317.545V55ZM317.545 26.2109V25.2109H316.545V26.2109H317.545ZM320.103 26.2109H321.103V25.2109H320.103V26.2109ZM320.103 55V56H321.103V55H320.103ZM317.545 55H318.545V26.2109H317.545H316.545V55H317.545ZM317.545 26.2109V27.2109H320.103V26.2109V25.2109H317.545V26.2109ZM320.103 26.2109H319.103V55H320.103H321.103V26.2109H320.103ZM320.103 55V54H317.545V55V56H320.103V55ZM331.86 54.4141L331.413 55.3085L331.417 55.3104L331.86 54.4141ZM326.997 49.1797L326.607 48.2586L325.726 48.6312L326.06 49.5282L326.997 49.1797ZM329.399 48.1641L330.345 47.8397L329.997 46.8255L329.01 47.243L329.399 48.1641ZM330.825 50.625L330.072 51.2835L330.078 51.2902L330.825 50.625ZM333.11 52.3438L332.674 53.2435L332.684 53.2486L333.11 52.3438ZM341.098 50.3906L340.272 49.8269L340.271 49.8298L341.098 50.3906ZM341.196 44.9023L340.364 45.4571L340.369 45.4638L341.196 44.9023ZM339.36 43.0664L338.802 43.8962L338.809 43.9007L339.36 43.0664ZM335.298 41.1523L335.657 40.2189L335.647 40.2153L335.298 41.1523ZM331.606 39.3555L331.074 40.2024L331.079 40.2051L331.606 39.3555ZM343.462 30.7617L343.833 31.6902L344.81 31.2994L344.37 30.3436L343.462 30.7617ZM341.216 31.6602L340.335 32.1343L340.758 32.9201L341.587 32.5886L341.216 31.6602ZM340.044 30.1172L339.31 30.797L339.319 30.8062L339.328 30.8153L340.044 30.1172ZM338.169 28.7891L337.734 29.6897L337.747 29.6956L338.169 28.7891ZM331.841 29.5117L332.485 30.2767L332.491 30.2717L331.841 29.5117ZM330.903 35.293L330.027 35.7742L330.031 35.7816L330.903 35.293ZM332.309 36.9727L331.676 37.7466L331.686 37.7544L331.695 37.762L332.309 36.9727ZM334.165 38.1445L333.718 39.039L333.725 39.0425L334.165 38.1445ZM336.04 38.9648L335.686 39.9003L335.696 39.904L335.706 39.9075L336.04 38.9648ZM343.481 43.7891L342.631 44.315L342.635 44.3216L342.639 44.3281L343.481 43.7891ZM343.208 51.6211L342.381 51.058L342.38 51.06L343.208 51.6211ZM340.083 54.3555L340.53 55.2499L340.534 55.2481L340.083 54.3555ZM335.942 55.3125V54.3125C334.567 54.3125 333.361 54.0408 332.304 53.5177L331.86 54.4141L331.417 55.3104C332.781 55.9852 334.296 56.3125 335.942 56.3125V55.3125ZM331.86 54.4141L332.307 53.5196C331.215 52.9737 330.304 52.2811 329.561 51.445L328.813 52.1094L328.066 52.7737C328.989 53.8126 330.109 54.6565 331.413 55.3085L331.86 54.4141ZM328.813 52.1094L329.561 51.445C328.797 50.5857 328.262 49.7139 327.934 48.8312L326.997 49.1797L326.06 49.5282C326.487 50.6767 327.163 51.758 328.066 52.7737L328.813 52.1094ZM326.997 49.1797L327.386 50.1008L329.789 49.0851L329.399 48.1641L329.01 47.243L326.607 48.2586L326.997 49.1797ZM329.399 48.1641L328.453 48.4884C328.808 49.5234 329.349 50.4571 330.072 51.2835L330.825 50.625L331.578 49.9665C331.025 49.3345 330.615 48.6276 330.345 47.8397L329.399 48.1641ZM330.825 50.625L330.078 51.2902C330.806 52.1066 331.674 52.7581 332.674 53.2434L333.11 52.3438L333.547 51.4441C332.776 51.07 332.12 50.5757 331.572 49.9598L330.825 50.625ZM333.11 52.3438L332.684 53.2486C333.711 53.7319 334.822 53.9688 336.001 53.9688V52.9688V51.9688C335.097 51.9688 334.28 51.7889 333.536 51.4389L333.11 52.3438ZM336.001 52.9688V53.9688C337.205 53.9688 338.338 53.7072 339.383 53.177L338.93 52.2852L338.478 51.3933C337.726 51.7746 336.906 51.9688 336.001 51.9688V52.9688ZM338.93 52.2852L339.383 53.177C340.427 52.6472 341.281 51.9039 341.926 50.9515L341.098 50.3906L340.271 49.8298C339.822 50.4919 339.231 51.0117 338.478 51.3933L338.93 52.2852ZM341.098 50.3906L341.924 50.9544C342.608 49.9532 342.938 48.8024 342.938 47.5391H341.938H340.938C340.938 48.4372 340.709 49.1874 340.272 49.8269L341.098 50.3906ZM341.938 47.5391H342.938C342.938 46.3446 342.649 45.262 342.024 44.3408L341.196 44.9023L340.369 45.4638C340.733 46.001 340.938 46.6763 340.938 47.5391H341.938ZM341.196 44.9023L342.028 44.3476C341.461 43.4968 340.754 42.7889 339.911 42.2321L339.36 43.0664L338.809 43.9007C339.424 44.3074 339.942 44.8235 340.364 45.457L341.196 44.9023ZM339.36 43.0664L339.918 42.2367C339.149 41.7191 338.358 41.2947 337.547 40.9672L337.173 41.8945L336.798 42.8219C337.471 43.0934 338.139 43.4502 338.802 43.8961L339.36 43.0664ZM337.173 41.8945L337.547 40.9672C336.802 40.6665 336.171 40.4169 335.657 40.219L335.298 41.1523L334.939 42.0857C335.44 42.2784 336.059 42.5236 336.798 42.8219L337.173 41.8945ZM335.298 41.1523L335.647 40.2153C334.377 39.7422 333.207 39.1718 332.134 38.5058L331.606 39.3555L331.079 40.2051C332.271 40.9453 333.562 41.5729 334.949 42.0894L335.298 41.1523ZM331.606 39.3555L332.138 38.5086C331.132 37.8766 330.332 37.1023 329.725 36.186L328.891 36.7383L328.058 37.2906C328.831 38.4576 329.841 39.4281 331.074 40.2024L331.606 39.3555ZM328.891 36.7383L329.725 36.186C329.163 35.3382 328.856 34.2702 328.856 32.9297H327.856H326.856C326.856 34.584 327.239 36.055 328.058 37.2906L328.891 36.7383ZM327.856 32.9297H328.856C328.856 31.6797 329.138 30.6334 329.669 29.7559L328.813 29.2383L327.958 28.7207C327.212 29.9525 326.856 31.3672 326.856 32.9297H327.856ZM328.813 29.2383L329.669 29.7559C330.206 28.8674 330.956 28.1729 331.944 27.6677L331.489 26.7773L331.034 25.887C329.73 26.5537 328.696 27.4998 327.958 28.7207L328.813 29.2383ZM331.489 26.7773L331.944 27.6677C332.926 27.1659 334.099 26.8984 335.493 26.8984V25.8984V24.8984C333.84 24.8984 332.344 25.2169 331.034 25.887L331.489 26.7773ZM335.493 25.8984V26.8984C336.804 26.8984 337.897 27.1149 338.798 27.5154L339.204 26.6016L339.61 25.6878C338.402 25.1507 337.021 24.8984 335.493 24.8984V25.8984ZM339.204 26.6016L338.798 27.5154C339.747 27.9375 340.513 28.4708 341.115 29.1057L341.841 28.418L342.567 27.7302C341.762 26.8808 340.77 26.2032 339.61 25.6878L339.204 26.6016ZM341.841 28.418L341.115 29.1057C341.752 29.7789 342.227 30.4709 342.553 31.1799L343.462 30.7617L344.37 30.3436C343.941 29.4119 343.335 28.5414 342.567 27.7302L341.841 28.418ZM343.462 30.7617L343.09 29.8332L340.844 30.7317L341.216 31.6602L341.587 32.5886L343.833 31.6902L343.462 30.7617ZM341.216 31.6602L342.096 31.1861C341.769 30.5782 341.316 29.99 340.76 29.4191L340.044 30.1172L339.328 30.8153C339.787 31.286 340.116 31.7265 340.335 32.1343L341.216 31.6602ZM340.044 30.1172L340.777 29.4374C340.182 28.7958 339.447 28.2809 338.591 27.8825L338.169 28.7891L337.747 29.6956C338.401 30.0003 338.915 30.3709 339.31 30.797L340.044 30.1172ZM338.169 28.7891L338.603 27.8885C337.687 27.4461 336.647 27.2422 335.512 27.2422V28.2422V29.2422C336.409 29.2422 337.14 29.4028 337.734 29.6896L338.169 28.7891ZM335.512 28.2422V27.2422C333.846 27.2422 332.383 27.7317 331.191 28.7518L331.841 29.5117L332.491 30.2717C333.277 29.599 334.262 29.2422 335.512 29.2422V28.2422ZM331.841 29.5117L331.196 28.7468C329.951 29.7957 329.356 31.238 329.356 32.9492H330.356H331.356C331.356 31.7437 331.751 30.8944 332.485 30.2766L331.841 29.5117ZM330.356 32.9492H329.356C329.356 33.9846 329.567 34.9375 330.027 35.7742L330.903 35.293L331.78 34.8117C331.51 34.3203 331.356 33.7107 331.356 32.9492H330.356ZM330.903 35.293L330.031 35.7816C330.456 36.541 331.006 37.1979 331.676 37.7466L332.309 36.9727L332.943 36.1987C332.467 35.8099 332.08 35.347 331.776 34.8044L330.903 35.293ZM332.309 36.9727L331.695 37.762C332.332 38.2574 333.007 38.6834 333.718 39.039L334.165 38.1445L334.612 37.2501C334.021 36.9546 333.458 36.5994 332.923 36.1833L332.309 36.9727ZM334.165 38.1445L333.725 39.0425C334.412 39.3795 335.066 39.666 335.686 39.9003L336.04 38.9648L336.393 38.0294C335.841 37.8209 335.246 37.5607 334.605 37.2466L334.165 38.1445ZM336.04 38.9648L335.706 39.9075C336.313 40.1223 337.08 40.4161 338.01 40.7909L338.384 39.8633L338.757 38.9357C337.813 38.5552 337.017 38.2501 336.374 38.0222L336.04 38.9648ZM338.384 39.8633L338.01 40.7909C338.876 41.1395 339.745 41.6061 340.616 42.1956L341.177 41.3672L341.737 40.5387C340.76 39.8783 339.767 39.3422 338.757 38.9357L338.384 39.8633ZM341.177 41.3672L340.616 42.1956C341.419 42.7381 342.09 43.4404 342.631 44.315L343.481 43.7891L344.332 43.2631C343.649 42.1585 342.783 41.2463 341.737 40.5387L341.177 41.3672ZM343.481 43.7891L342.639 44.3281C343.137 45.1069 343.419 46.1251 343.419 47.4414H344.419H345.419C345.419 45.841 345.075 44.4243 344.324 43.25L343.481 43.7891ZM344.419 47.4414H343.419C343.419 48.8665 343.063 50.0582 342.381 51.058L343.208 51.6211L344.034 52.1841C344.968 50.8142 345.419 49.2194 345.419 47.4414H344.419ZM343.208 51.6211L342.38 51.06C341.683 52.0882 340.772 52.8869 339.632 53.4629L340.083 54.3555L340.534 55.2481C341.971 54.522 343.144 53.4977 344.036 52.1821L343.208 51.6211ZM340.083 54.3555L339.636 53.461C338.504 54.0268 337.278 54.3125 335.942 54.3125V55.3125V56.3125C337.575 56.3125 339.109 55.9602 340.53 55.2499L340.083 54.3555Z" fill="#3167C4" mask="url(#path-4-outside-1_13222_15059)"/>
</svg>
